<svg xmlns="http://www.w3.org/2000/svg" width="666.667" height="666.667" preserveAspectRatio="xMidYMid meet" version="1.0" viewBox="0 0 500 500"><g fill="#000" stroke="none"><path d="M2011 4898 c-485 -1250 -1865 -4818 -1869 -4830 -4 -17 23 -18 475 -18 l480 0 1139 678 c626 372 1141 675 1144 673 3 -3 122 -307 265 -675 l261 -671 482 -3 482 -2 -13 32 c-7 18 -431 1114 -943 2435 l-929 2403 -483 0 -482 0 -9 -22z m759 -1918 c144 -371 266 -685 271 -697 7 -20 -42 -51 -694 -439 -386 -229 -705 -419 -709 -421 -4 -2 -1 13 6 34 10 27 727 1875 847 2182 5 13 11 22 13 20 3 -2 122 -308 266 -679z" transform="translate(0.000000,500.000000) scale(0.100000,-0.100000)"/></g></svg>