<?xml version="1.0" standalone="no"?>
<!DOCTYPE svg PUBLIC "-//W3C//DTD SVG 20010904//EN"
 "http://www.w3.org/TR/2001/REC-SVG-20010904/DTD/svg10.dtd">
<svg version="1.0" xmlns="http://www.w3.org/2000/svg"
 width="2275.000000pt" height="2500.000000pt" viewBox="0 0 2275.000000 2500.000000"
 preserveAspectRatio="xMidYMid meet">

<g transform="translate(0.000000,2500.000000) scale(0.100000,-0.100000)"
fill="#000000" stroke="none">
<path d="M10610 24724 c-272 -88 -430 -146 -430 -156 0 -29 435 -180 520 -181
50 0 161 27 325 79 131 42 297 103 308 113 4 4 -16 17 -45 29 -82 33 -488 172
-501 171 -7 -1 -86 -25 -177 -55z"/>
<path d="M13065 24284 c-252 -85 -327 -114 -322 -127 4 -13 134 -65 304 -121
219 -72 217 -72 347 -35 202 57 413 140 401 158 -13 21 -229 98 -490 174 l-50
14 -190 -63z"/>
<path d="M11590 24215 c-407 -130 -678 -222 -755 -255 -38 -16 -45 -23 -36
-34 25 -30 350 -141 508 -173 l85 -18 126 44 c224 77 855 311 924 343 37 17
65 35 62 40 -8 13 -60 33 -283 109 -112 38 -213 69 -225 68 -11 0 -194 -56
-406 -124z"/>
<path d="M12620 23685 c-19 -8 -118 -43 -220 -79 -102 -35 -207 -74 -235 -87
l-50 -22 50 -22 c28 -13 120 -47 205 -75 164 -54 282 -106 288 -128 5 -17
-117 -73 -343 -157 -99 -37 -191 -73 -204 -80 l-23 -12 28 -20 c57 -40 366
-153 502 -183 71 -16 128 -5 354 70 184 61 338 126 338 142 0 12 -124 68 -236
107 -170 59 -208 73 -271 101 -35 16 -63 33 -63 38 0 13 84 49 275 120 88 32
178 68 199 79 38 19 39 21 19 31 -46 25 -554 194 -574 191 -2 0 -20 -6 -39
-14z"/>
<path d="M15140 23171 c-188 -69 -310 -124 -310 -140 0 -23 845 -325 1149
-411 146 -41 98 -51 626 134 88 31 169 56 180 56 51 0 543 186 528 200 -14 14
-453 157 -568 185 -109 27 -111 28 -178 11 -37 -9 -136 -43 -220 -77 -303
-122 -357 -120 -767 27 -130 46 -240 84 -245 84 -6 -1 -93 -31 -195 -69z"/>
<path d="M7225 23164 c-249 -83 -415 -145 -415 -154 0 -8 315 -135 435 -175
74 -25 76 -25 138 -9 74 19 464 157 507 179 42 22 37 43 -12 64 -110 46 -426
161 -444 160 -10 0 -104 -29 -209 -65z"/>
<path d="M5083 22896 c-178 -56 -325 -105 -327 -107 -3 -3 119 -54 271 -114
l277 -110 230 79 c328 112 396 137 396 146 0 13 -486 211 -513 209 -7 -1 -157
-47 -334 -103z"/>
<path d="M10595 22960 c-237 -85 -434 -149 -525 -170 -206 -47 -301 -74 -458
-132 -90 -34 -173 -69 -185 -79 -21 -17 -21 -17 -3 -38 18 -20 83 -47 425
-177 l154 -58 96 33 c344 120 1164 434 1168 447 2 5 -30 22 -69 37 -141 54
-479 177 -486 176 -4 0 -56 -18 -117 -39z"/>
<path d="M8150 22580 c-300 -104 -734 -253 -965 -333 -606 -208 -596 -203
-483 -249 35 -14 152 -62 260 -107 109 -44 206 -81 216 -81 19 0 389 122 662
219 96 35 258 92 360 128 102 36 289 105 415 153 127 48 313 116 415 150 102
35 191 69 199 76 20 18 5 33 -68 67 -86 39 -437 167 -453 166 -7 -1 -258 -86
-558 -189z"/>
<path d="M4957 22408 c-181 -61 -325 -114 -320 -118 11 -10 427 -175 481 -191
53 -15 94 -7 342 73 218 70 330 115 330 132 0 9 -425 190 -495 211 -5 2 -158
-46 -338 -107z"/>
<path d="M18075 22233 c-351 -142 -741 -305 -960 -398 -343 -147 -732 -301
-795 -314 -97 -21 -411 -139 -563 -212 -55 -26 -66 -34 -55 -44 13 -13 239
-104 453 -183 386 -144 496 -183 721 -258 138 -46 268 -84 288 -84 86 0 556
195 556 231 0 18 -53 42 -276 123 -297 108 -368 138 -372 157 -4 24 184 111
853 390 214 90 397 162 405 162 8 -1 137 -44 286 -96 150 -53 322 -109 384
-127 l112 -32 105 37 c184 63 463 193 463 215 0 16 -347 139 -576 204 -291 83
-390 113 -629 193 -137 45 -259 83 -270 82 -11 0 -69 -21 -130 -46z"/>
<path d="M9790 21690 c-213 -80 -271 -103 -359 -143 -60 -27 -63 -29 -43 -43
66 -46 524 -216 585 -217 18 0 97 24 177 53 151 55 429 166 437 174 12 11 -13
26 -108 65 -162 68 -469 181 -487 180 -9 0 -100 -31 -202 -69z"/>
<path d="M22550 21185 c-90 -41 -225 -100 -300 -131 -240 -100 -500 -215 -725
-319 -121 -57 -308 -142 -415 -190 -107 -48 -242 -109 -300 -135 -58 -27 -360
-161 -672 -299 l-567 -252 -238 85 c-323 114 -456 156 -496 156 -40 0 -171
-51 -402 -155 -183 -83 -238 -112 -230 -125 9 -14 88 -47 251 -105 260 -92
426 -158 431 -173 3 -7 -3 -19 -13 -27 -22 -16 -592 -279 -764 -353 -152 -65
-368 -166 -527 -245 -160 -80 -396 -188 -668 -305 -231 -100 -730 -326 -1510
-684 -280 -129 -582 -265 -669 -303 -153 -65 -160 -67 -195 -55 -33 11 -360
142 -1231 489 -168 67 -315 126 -327 131 -27 11 -30 41 -5 62 9 8 94 48 187
88 94 39 343 150 555 245 212 95 452 202 534 237 83 36 151 69 153 75 2 5
-155 73 -348 151 l-352 142 -206 -91 c-251 -111 -399 -172 -506 -210 -45 -15
-148 -57 -231 -92 -82 -36 -230 -99 -328 -141 -99 -42 -229 -94 -290 -115
-136 -47 -203 -74 -471 -188 -260 -111 -287 -122 -355 -140 -95 -24 -489 -188
-655 -270 -65 -33 -68 -36 -50 -50 33 -25 267 -135 528 -248 l248 -107 247
108 c136 59 314 136 396 170 l149 62 46 -18 c25 -10 70 -28 100 -39 154 -62
526 -223 672 -292 91 -43 260 -118 375 -167 272 -117 368 -162 357 -172 -31
-31 -1174 -569 -1503 -708 -201 -85 -571 -246 -708 -308 l-153 -69 6 -875 c3
-481 2 -937 -2 -1012 l-8 -138 -145 64 c-80 35 -233 103 -340 151 -107 47
-213 90 -235 94 -88 18 -672 291 -1320 616 -497 250 -686 337 -757 350 -35 7
-38 5 -39 -16 0 -13 -2 -33 -4 -44 -2 -11 -7 -224 -11 -472 -4 -249 -9 -453
-10 -453 -2 0 -129 59 -283 130 -287 134 -389 174 -405 159 -8 -7 -24 -532
-25 -846 -1 -64 -5 -103 -11 -103 -10 0 -495 218 -601 270 -40 20 -48 28 -53
59 -3 20 -6 239 -7 486 0 248 -4 458 -8 468 -7 19 -210 116 -501 239 -85 37
-261 111 -390 166 -129 55 -296 129 -371 164 l-136 65 -6 213 c-4 117 -7 354
-7 526 l0 312 313 -148 c171 -81 322 -151 333 -154 19 -6 23 -2 28 31 3 21 9
236 12 478 l7 440 -29 11 c-16 7 -155 69 -309 139 -154 70 -293 128 -310 129
-25 1 -30 -3 -36 -29 -4 -16 -7 -222 -8 -457 -1 -278 -5 -428 -11 -428 -5 0
-130 57 -277 126 -283 133 -345 157 -390 152 -44 -5 -51 -58 -53 -408 -1 -168
-5 -362 -9 -432 l-6 -128 -265 121 c-146 67 -292 134 -326 149 l-61 28 -6 62
c-12 108 -8 1950 3 1950 11 0 330 -144 543 -244 65 -31 120 -56 123 -56 6 0 5
326 -3 667 l-6 300 -321 146 c-177 80 -329 149 -338 153 -17 6 -18 -16 -19
-377 0 -359 -7 -531 -23 -546 -9 -9 -56 8 -226 85 -282 126 -435 192 -446 192
-7 0 -14 -7 -18 -15 -3 -8 -8 -589 -11 -1290 -6 -1171 -14 -1657 -27 -1670 -5
-5 -94 33 -328 140 -133 61 -306 135 -315 135 -4 0 -12 6 -19 13 -10 10 -11
26 -5 63 4 27 8 254 8 504 l1 455 -258 119 c-141 65 -304 137 -362 159 -101
38 -629 271 -730 322 -89 45 -84 13 -90 569 l-5 490 -334 153 c-240 110 -337
150 -342 141 -13 -21 -18 -144 -22 -556 -2 -221 -7 -405 -11 -409 -3 -3 -16
-1 -29 5 -12 6 -65 29 -117 50 -303 125 -466 196 -475 207 -35 44 -74 6 -76
-74 -6 -228 4 -2565 12 -2715 8 -174 11 -192 31 -213 26 -28 99 -63 403 -198
l230 -102 3 -879 c2 -483 0 -934 -3 -1001 l-7 -122 -25 10 c-14 5 -153 68
-310 140 -157 72 -288 128 -291 124 -11 -11 -20 -931 -26 -2640 -3 -940 -8
-1951 -11 -2245 -5 -492 7 -1909 23 -2774 l7 -360 305 -141 c168 -77 346 -160
395 -184 50 -24 129 -61 177 -82 47 -21 179 -81 293 -134 113 -54 208 -95 210
-93 2 2 11 217 20 478 9 261 17 475 18 475 1 1 148 -64 327 -145 l325 -147 6
-74 c4 -41 12 -263 19 -494 9 -290 16 -422 24 -427 6 -4 79 -38 161 -74 159
-71 564 -257 1140 -524 841 -390 774 -361 787 -337 9 16 14 142 19 437 6 430
11 477 47 468 9 -3 157 -67 328 -143 l311 -138 7 -66 c3 -36 6 -147 6 -247 0
-99 3 -289 7 -422 l6 -241 386 -177 c212 -98 584 -268 826 -379 242 -112 573
-264 735 -340 307 -142 887 -408 1120 -512 495 -223 1477 -672 1920 -878 162
-76 394 -184 515 -240 121 -56 265 -124 320 -150 55 -26 192 -90 305 -142
l204 -94 106 47 c300 133 1069 482 1375 624 121 57 288 133 370 170 83 37 272
123 420 190 149 67 367 166 485 220 260 117 404 183 4710 2139 1878 854 3535
1607 3682 1674 l268 122 2 2990 c7 7392 8 13054 2 13069 -3 9 -11 16 -18 16
-6 -1 -85 -34 -176 -75z m-20182 -5034 c108 -49 259 -119 336 -155 l139 -66
-6 -453 c-4 -248 -10 -467 -13 -484 -3 -18 -12 -33 -20 -33 -15 0 -207 87
-471 215 l-183 88 -2 261 c-4 474 3 716 18 716 3 0 93 -40 202 -89z m695
-2342 c88 -39 229 -104 314 -145 l153 -73 -1 -443 c0 -244 -3 -459 -7 -479
l-7 -35 -60 27 c-33 16 -177 84 -320 152 l-260 123 -3 399 c-3 414 2 545 21
545 6 0 82 -32 170 -71z m-1413 -347 c80 -35 382 -172 671 -304 507 -231 527
-241 533 -270 11 -55 8 -893 -4 -922 -9 -24 -14 -27 -38 -21 -39 9 -210 86
-492 220 -135 65 -288 137 -340 160 -52 24 -192 88 -310 143 l-215 98 1 462
c1 254 5 473 8 487 7 29 -6 33 186 -53z m3408 -562 c9 -5 118 -54 242 -109
275 -121 550 -245 855 -384 l230 -105 3 -415 c1 -227 -1 -450 -5 -495 l-8 -81
-195 93 c-337 160 -879 412 -1030 478 l-145 64 1 414 c1 414 7 550 25 550 5 0
17 -4 27 -10z m2392 -1081 c168 -77 472 -217 675 -310 204 -93 376 -177 383
-186 9 -13 12 -129 12 -501 l0 -484 -25 6 c-27 7 -214 92 -714 325 -371 174
-621 297 -641 317 -13 13 -15 82 -18 481 -2 256 -1 472 2 480 3 7 9 13 14 13
4 0 145 -63 312 -141z m3507 -598 c137 -60 281 -124 321 -142 l74 -33 -5 -475
c-2 -262 -8 -486 -12 -498 -7 -21 -8 -20 -103 22 -99 44 -438 203 -524 246
l-48 23 0 215 c1 272 16 726 25 740 3 6 10 11 16 11 5 0 120 -49 256 -109z
m-8422 -1179 c132 -60 399 -182 594 -271 195 -89 371 -171 393 -182 l39 -20
-3 -489 c-2 -268 -6 -491 -10 -495 -7 -7 -307 128 -848 383 -492 231 -519 244
-527 261 -10 21 -17 767 -8 888 l7 91 61 -28 c34 -15 170 -77 302 -138z m2099
-965 l339 -153 2 -240 c1 -329 -10 -713 -22 -725 -10 -10 -169 60 -525 229
l-148 71 0 485 c0 267 3 486 8 486 4 0 160 -69 346 -153z m-669 -696 l280
-127 3 -489 c1 -269 -2 -493 -6 -497 -8 -8 -637 273 -659 295 -10 9 -13 123
-15 467 -1 250 1 469 5 486 l8 31 52 -19 c29 -10 178 -76 332 -147z m4779
-175 c176 -78 266 -118 766 -347 96 -45 227 -106 290 -137 113 -56 115 -58
123 -97 10 -49 5 -930 -5 -941 -4 -4 -315 134 -691 307 l-684 314 -6 179 c-14
362 -8 806 11 806 2 0 91 -38 196 -84z m-1874 -144 c206 -94 497 -227 645
-295 l270 -124 8 -374 c9 -386 4 -566 -16 -594 -11 -14 -18 -13 -72 9 -108 43
-262 112 -777 348 l-508 233 0 497 0 497 38 -13 c20 -7 206 -90 412 -184z
m-2435 -902 c61 -27 207 -93 325 -148 l215 -99 -2 -389 c-2 -409 -9 -570 -24
-580 -10 -6 -200 74 -489 205 l-175 79 -3 497 -2 496 22 -6 c13 -4 73 -29 133
-55z m5778 -646 c128 -59 273 -124 322 -144 l90 -38 3 -423 c3 -417 -1 -529
-18 -529 -5 0 -53 20 -107 45 -54 25 -195 90 -313 144 l-215 97 -3 477 c-1
262 0 477 3 477 3 0 110 -48 238 -106z m-7900 -398 c78 -35 229 -103 335 -151
l192 -87 0 -347 c-1 -329 -11 -616 -23 -628 -6 -6 -212 81 -487 206 l-175 79
-3 496 c-1 340 1 496 8 496 6 0 75 -29 153 -64z m4897 -1237 c90 -34 554 -241
568 -253 9 -9 13 -118 15 -476 1 -256 -2 -475 -6 -487 -10 -27 2 -30 -219 71
-265 120 -414 194 -427 209 -16 21 -31 209 -30 407 0 194 15 525 24 540 8 14
12 13 75 -11z m2895 -312 c44 -19 172 -78 285 -130 478 -221 791 -365 872
-402 l88 -40 -1 -410 c0 -393 -6 -546 -22 -561 -4 -4 -42 8 -85 26 -112 49
-1190 539 -1234 561 l-38 19 0 449 c0 246 3 469 6 494 7 52 -5 53 129 -6z
m-489 -781 l301 -137 7 -82 c8 -106 8 -810 0 -860 -6 -32 -10 -37 -28 -31 -35
10 -148 60 -403 176 l-243 111 0 494 0 493 33 -13 c17 -8 167 -76 333 -151z"/>
<path d="M13945 21137 c-279 -114 -315 -131 -315 -152 0 -31 57 -56 453 -199
l208 -76 182 74 c503 205 470 189 431 204 -16 5 -153 56 -304 112 -255 95
-388 141 -400 139 -3 0 -118 -47 -255 -102z"/>
<path d="M9145 20945 c-5 -2 -62 -20 -125 -40 -238 -77 -490 -179 -497 -201
-2 -7 28 -24 69 -40 40 -15 159 -63 263 -107 105 -44 227 -93 273 -108 99 -35
102 -34 319 45 244 89 417 168 411 188 -9 26 -290 151 -515 228 -101 35 -165
46 -198 35z"/>
<path d="M11805 20833 c-159 -63 -292 -117 -295 -120 -23 -21 111 -87 395
-193 173 -65 202 -69 291 -40 178 58 481 187 503 213 12 15 9 19 -24 33 -58
24 -575 224 -578 223 -1 0 -132 -52 -292 -116z"/>
<path d="M2490 20620 c-226 -66 -501 -162 -528 -183 -30 -23 45 -70 337 -210
154 -74 189 -87 215 -81 29 6 337 112 492 168 146 54 256 101 258 111 2 19
-311 164 -488 225 -33 11 -73 20 -90 19 -17 0 -105 -22 -196 -49z"/>
<path d="M5385 20616 c-285 -96 -541 -195 -545 -211 -3 -11 274 -140 473 -221
l118 -48 117 38 c121 40 552 195 619 223 l38 16 -50 23 c-77 36 -422 180 -498
209 -37 14 -77 25 -90 25 -12 0 -94 -24 -182 -54z"/>
<path d="M14770 20297 c-140 -57 -316 -130 -390 -162 -74 -31 -166 -70 -205
-85 -73 -29 -403 -174 -467 -206 -21 -10 -38 -22 -38 -27 0 -14 192 -99 458
-202 l253 -97 148 66 c82 36 288 122 457 190 451 181 574 232 661 272 43 20
98 45 122 55 l45 20 -53 24 c-29 14 -96 40 -149 59 -54 19 -194 69 -312 111
-118 42 -228 79 -245 81 -21 3 -102 -25 -285 -99z"/>
<path d="M4435 19724 c-93 -35 -250 -94 -348 -131 l-178 -68 28 -23 c15 -12
142 -79 281 -149 l252 -127 73 23 c94 30 503 185 590 224 37 16 66 35 64 41
-2 6 -48 34 -103 63 -109 57 -463 214 -479 212 -5 -1 -86 -30 -180 -65z"/>
<path d="M16403 19696 c-262 -116 -391 -185 -372 -199 4 -3 71 -30 454 -179
267 -105 220 -104 459 -1 219 95 396 180 396 191 0 5 -45 28 -100 51 -112 47
-607 231 -618 231 -4 -1 -102 -43 -219 -94z"/>
<path d="M2144 17720 c0 -135 2 -190 3 -122 2 67 2 177 0 245 -1 67 -3 12 -3
-123z"/>
<path d="M2133 17400 c0 -30 2 -43 4 -27 2 15 2 39 0 55 -2 15 -4 2 -4 -28z"/>
<path d="M9945 16212 c4 -273 10 -500 14 -505 8 -8 528 -252 613 -287 32 -13
61 -20 65 -16 9 9 17 903 8 962 -6 40 -7 42 -78 69 -124 48 -316 130 -476 204
l-153 70 7 -497z"/>
</g>
</svg>
