<svg xmlns="http://www.w3.org/2000/svg" viewBox="0 0 100 100" width="100%" height="100%" fill="#181717"><path d="M50 0C22.4 0 0 22.4 0 50c0 22.1 14.3 40.8 34.2 47.4 2.5.5 3.4-1.1 3.4-2.4 0-1.2-.1-4.3-.1-8.5-13.9 3-16.8-6.7-16.8-6.7-2.3-5.8-5.6-7.3-5.6-7.3-4.5-3.1.3-3 .3-3 5 .4 7.7 5.2 7.7 5.2 4.5 7.7 11.7 5.5 14.6 4.2.5-3.3 1.8-5.5 3.2-6.8-11.1-1.3-22.8-5.6-22.8-24.8 0-5.5 2-9.9 5.2-13.4-.5-1.3-2.3-6.4.5-13.2 0 0 4.2-1.4 13.9 5.2 4-1.1 8.3-1.7 12.5-1.7s8.5.6 12.5 1.7c9.7-6.5 13.9-5.2 13.9-5.2 2.8 6.8 1 11.9.5 13.2 3.3 3.5 5.2 7.9 5.2 13.4 0 19.2-11.7 23.5-22.9 24.8 1.8 1.6 3.4 4.6 3.4 9.3 0 6.7-.1 12.1-.1 13.8 0 1.3.9 2.9 3.4 2.4C85.7 90.8 100 72.1 100 50 100 22.4 77.6 0 50 0z"/></svg>
